<svg xmlns="http://www.w3.org/2000/svg" version="1.1" xmlns:xlink="http://www.w3.org/1999/xlink" width="512" height="512" x="0" y="0" viewBox="0 0 512 512" style="enable-background:new 0 0 512 512" xml:space="preserve" class=""><g><path d="M489.34 149.69a44.514 44.514 0 0 0-26.88-15.03l-117.84-18.61a4.205 4.205 0 0 0-.62-.05h-67.98l-.02-8.4A20.035 20.035 0 0 0 292 88V66.45a24.407 24.407 0 0 0 16-23.03V32a4 4 0 0 0-4-4h-18.22a21.61 21.61 0 0 1-9.28-2.11l-6.27-3A29.5 29.5 0 0 0 228 49.49V76a16 16 0 0 0 8 13.85V116h-68a4.205 4.205 0 0 0-.62.05L49.54 134.66a44.451 44.451 0 0 0-35.97 55.62l45.46 166.68a7.989 7.989 0 0 0 10.24 5.5l17.24-5.75a7.977 7.977 0 0 0 5.49-7.59v-22.74l3.59 3.27a9.083 9.083 0 0 0 2.98 1.79c.38.31.77.63 1.16.93A110.99 110.99 0 0 0 164 355.92V488a4 4 0 0 0 4 4h80a4 4 0 0 0 4-4v-92h8v92a4 4 0 0 0 4 4h80a4 4 0 0 0 4-4V355.91a110.612 110.612 0 0 0 65.38-24.45 9.02 9.02 0 0 0 3.03-1.81l3.59-3.27v22.74a7.981 7.981 0 0 0 5.48 7.59l17.24 5.74a8.047 8.047 0 0 0 6.31-.53 8.008 8.008 0 0 0 3.94-4.95l45.46-166.68a44.472 44.472 0 0 0-9.09-40.6ZM244 68a7.9 7.9 0 0 1 5.59 2.28 4.019 4.019 0 0 0 6.09-.55 23.97 23.97 0 0 0 3.72-8.38l16.22 5.4a24.239 24.239 0 0 0 7.64 1.27c.24 0 .49-.01.74-.02v20a12.01 12.01 0 0 1-12 12 28.007 28.007 0 0 1-14-3.74 4 4 0 1 0-4 6.92 35.787 35.787 0 0 0 14 4.58l.02 10.58-12.02 12-12-12V87.31a3.989 3.989 0 0 0-2.67-3.77A8 8 0 0 1 244 68ZM102.39 323.61a.927.927 0 0 1-.76.37.916.916 0 0 1-.66-.25l-10.28-9.36a4 4 0 0 0-6.69 2.96v31.79l-17.25 5.75-45.46-166.7a36.442 36.442 0 0 1 29.49-45.61l32.13-5.07 8.2 39.27-19.77 3.29a4 4 0 0 0-3.22 4.92l34.45 137.81a.9.9 0 0 1-.18.83ZM164 172.72v136.57l-4.24 1.7a102.54 102.54 0 0 1-50.24 6.59L76.93 187.23Zm1.76 175.23a102.919 102.919 0 0 1-57.36-19.08c.1-.11.2-.21.29-.33a8.656 8.656 0 0 0 1.49-2.83 110.684 110.684 0 0 0 52.55-7.29l6.04-2.42h16.16Zm121.82-31.83-28.19 45.09a4 4 0 0 1-6.78 0l-28.19-45.09a4.006 4.006 0 0 1-.59-2.43l.45-5.69H172V168a4 4 0 0 0-4.66-3.95L99 175.44l-8.18-39.2L168.31 124h70.03l10.91 10.9-24.46 12.23-13.96-13.96a4 4 0 0 0-5.66 5.66l16 16a4 4 0 0 0 4.62.75l12.42-6.21 5.71 11.42-6.88 87.21-4.74 60-.39 5L256 351.55 280.09 313l-.39-5-4.74-60-6.89-87.21 5.68-11.45 12.46 6.24a4.052 4.052 0 0 0 1.79.42 3.989 3.989 0 0 0 2.83-1.17l16-16a4 4 0 0 0-5.66-5.66l-13.96 13.96-24.45-12.22L273.68 124h70.01l77.49 12.24-8.18 39.2-68.34-11.39A4 4 0 0 0 340 168v140h-52.28l.45 5.69a4.006 4.006 0 0 1-.59 2.43Zm147.49-128.89-32.59 130.36a102.661 102.661 0 0 1-50.24-6.6l-4.24-1.7V172.72Zm-88.83 160.72L327.07 316h16.16l6.04 2.42a109.765 109.765 0 0 0 52.54 7.28 8.926 8.926 0 0 0 1.5 2.84c.09.12.19.22.28.32a102.591 102.591 0 0 1-57.35 19.09Zm144.47-159.77-45.45 166.69-17.26-5.75v-31.79a4 4 0 0 0-6.69-2.96l-10.28 9.36a1 1 0 0 1-.66.25.927.927 0 0 1-.76-.37.9.9 0 0 1-.18-.83l34.45-137.81a4 4 0 0 0-3.22-4.92l-19.77-3.29 8.2-39.27 32.13 5.07a36.452 36.452 0 0 1 29.49 45.62Z" fill="#000000" opacity="1" data-original="#000000" class=""></path><path d="m125.171 373.171-8 8a4 4 0 0 0 5.658 5.658l8-8a4 4 0 0 0-5.658-5.658ZM144 376a4 4 0 0 0-4 4v12a4 4 0 0 0 8 0v-12a4 4 0 0 0-4-4ZM124 360a4 4 0 0 0-4-4h-12a4 4 0 0 0 0 8h12a4 4 0 0 0 4-4ZM386.829 381.171a4 4 0 0 0-5.658 5.658l8 8a4 4 0 0 0 5.658-5.658ZM368 384a4 4 0 0 0-4 4v12a4 4 0 0 0 8 0v-12a4 4 0 0 0-4-4ZM404 364h-12a4 4 0 0 0 0 8h12a4 4 0 0 0 0-8Z" fill="#000000" opacity="1" data-original="#000000" class=""></path></g></svg>